<?xml version="1.0" encoding="UTF-8"?><svg id="Layer_1" xmlns="http://www.w3.org/2000/svg" viewBox="0 0 150.08 146.67"><defs><style>.cls-1{fill:#ffc01b;}</style></defs><path class="cls-1" d="M30.6,117.77c-3.06,0-5.67-1.09-7.85-3.26s-3.26-4.79-3.26-7.85V40c0-3.06,1.09-5.67,3.26-7.85,2.18-2.18,4.79-3.26,7.85-3.26h88.88c3.06,0,5.67,1.09,7.85,3.26s3.26,4.79,3.26,7.85v66.66c0,3.06-1.09,5.67-3.26,7.85-2.18,2.18-4.79,3.26-7.85,3.26H30.6ZM75.04,78.89l-44.44-27.78v55.55h88.88v-55.55l-44.44,27.78ZM75.04,67.78l44.44-27.78H30.6l44.44,27.78ZM30.6,51.11v-11.11,66.66-55.55Z"/></svg>