<?xml version="1.0" encoding="UTF-8"?><svg id="Layer_1" xmlns="http://www.w3.org/2000/svg" viewBox="0 0 59.75 46.94"><defs><style>.cls-1{fill:#ffc01b;}</style></defs><path class="cls-1" d="M29.86,28.29c2.6,0,4.71-2.11,4.71-4.71,0-1.41-.62-2.67-1.61-3.54-.35-.3-.73-.56-1.16-.75-.59-.27-1.25-.42-1.94-.42s-1.35.15-1.94.42c-.42.19-.81.45-1.16.75-.99.86-1.61,2.13-1.61,3.54,0,2.6,2.11,4.71,4.71,4.71ZM29.87,20.1c1.92,0,3.48,1.56,3.48,3.48s-1.56,3.48-3.48,3.48-3.48-1.56-3.48-3.48,1.56-3.48,3.48-3.48ZM35.1,20.47h6.78v10.28c0,2.61-2.11,4.72-4.72,4.72h-14.49c-2.61,0-4.78-2.11-4.78-4.72v-10.28h6.75c-.54.91-.87,1.97-.87,3.11,0,3.37,2.73,6.11,6.11,6.11s6.11-2.73,6.11-6.11c0-1.14-.33-2.2-.87-3.11ZM37.15,11.47h-12.28v5h-1v-5h-1v5h-1v-4.92c-.35.06-.68.14-1,.27v4.65h-1v-4.1c-1.2.86-2,2.25-2,3.82v3.28h7.47c1.17-1.28,2.8-2,4.51-2s3.35.72,4.51,2h7.5v-3.28c0-2.61-2.11-4.72-4.72-4.72ZM39.87,16.74c0,.41-.33.74-.75.74h-2.51c-.41,0-.74-.33-.74-.74v-2.53c0-.41.33-.73.74-.73h2.51c.41,0,.75.33.75.74v2.53Z"/></svg>