<?xml version="1.0" encoding="UTF-8"?><svg id="Layer_1" xmlns="http://www.w3.org/2000/svg" viewBox="0 0 150.08 146.67"><defs><style>.cls-1{fill:#ffc01b;}</style></defs><path class="cls-1" d="M117.77,121.71c-11.2,0-22.26-2.44-33.19-7.32-10.93-4.88-20.87-11.8-29.83-20.76s-15.88-18.9-20.76-29.83c-4.88-10.93-7.32-21.99-7.32-33.19,0-1.61.54-2.96,1.61-4.03s2.42-1.61,4.03-1.61h21.77c1.25,0,2.37.43,3.36,1.28s1.57,1.86,1.75,3.02l3.49,18.81c.18,1.43.13,2.64-.13,3.63s-.76,1.84-1.48,2.55l-13.03,13.17c1.79,3.31,3.92,6.52,6.38,9.61,2.46,3.09,5.17,6.07,8.13,8.94,2.78,2.78,5.69,5.35,8.73,7.73,3.05,2.37,6.27,4.55,9.68,6.52l12.63-12.63c.81-.81,1.86-1.41,3.16-1.81,1.3-.4,2.58-.52,3.83-.34l18.54,3.76c1.25.36,2.28,1.01,3.09,1.95s1.21,1.99,1.21,3.16v21.77c0,1.61-.54,2.96-1.61,4.03s-2.42,1.61-4.03,1.61ZM42.92,57.21l8.87-8.87-2.28-12.63h-11.96c.45,3.67,1.08,7.3,1.88,10.88s1.97,7.12,3.49,10.62ZM91.03,105.32c3.49,1.52,7.05,2.73,10.68,3.63s7.28,1.48,10.95,1.75v-11.83l-12.63-2.55-9,9Z"/></svg>