<?xml version="1.0" encoding="UTF-8"?>
<svg id="Layer_1" data-name="Layer 1" xmlns="http://www.w3.org/2000/svg" viewBox="0 0 150.08 146.67">
  <defs>
    <style>
      .cls-1 {
        fill: #ffc01b;
        stroke-width: 0px;
      }
    </style>
  </defs>
  <path class="cls-1" d="M39.78,117.12c-9.29-8.82-12.83-19.58-9.52-31.97,3.42-12.77,12.08-20.56,24.94-23.57,3.3-.77,6.67-1.07,10.09-.52,1.27.21,1.74.72,1.73,1.97-.03,4.54-.11,9.09.03,13.63.07,2.17-.97,2.07-2.5,1.78-8.2-1.56-15.5,4.02-17.2,10.85-1.54,6.18.09,11.48,4.93,15.55,4.8,4.03,10.35,4.7,16,2.12,5.59-2.55,8.69-7.11,8.71-13.34.08-22.78.05-45.57.06-68.35,0-.75.03-1.49,0-2.24-.03-1.29.58-1.79,1.87-1.78,4.61.04,9.22.04,13.83,0,1.25,0,1.78.44,1.92,1.74,1.47,13.66,10.55,22.77,24.24,24.22,1.57.17,2.13.68,2.11,2.21-.05,4.34-.06,8.68,0,13.02.03,1.71-.66,2.27-2.31,2.17-7.95-.49-15.29-2.79-21.95-7.2-.55-.36-1.11-1.16-1.73-.88-.81.36-.38,1.34-.38,2.03-.02,11.32,0,22.65,0,33.97-.01,32.31-37.15,41.41-54.89,24.58Z"/>
</svg>