<?xml version="1.0" encoding="UTF-8"?><svg id="Layer_1" xmlns="http://www.w3.org/2000/svg" viewBox="0 0 294.75 261.34"><defs><style>.cls-1{fill:#ffc01b;}</style></defs><path class="cls-1" d="M147.87,33.26c2.36,17.14,3.49,34.42,7.51,51.37,4.92,20.76,17.64,33.02,38.24,37.86,13.11,3.08,26.41,4.75,39.79,6,3.8.35,7.58.79,11.38,1.19v.99c-8.04,2.11-16.38,1.94-24.54,3.12-10.32,1.49-20.62,2.92-30.71,5.69-19.34,5.31-29.84,18.63-34.29,37.34-3.24,13.63-4.94,27.52-6.18,41.47-.29,3.28-.79,6.53-1.19,9.8h-1c-1.86-15.18-2.87-30.47-6.12-45.47-6.3-29.09-16.76-39.7-46.16-45.68-13.13-2.67-26.45-4.17-39.83-5.12-1.62-.11-3.2-.75-4.81-1.14,0-.33,0-.66,0-.99,19.93-2.16,40.03-3.19,59.23-9.79,13.83-4.75,23.17-13.87,27.8-27.68,4.38-13.08,6.34-26.62,7.7-40.28.62-6.23,1.45-12.45,2.19-18.67.33,0,.67,0,1,0Z"/></svg>