<?xml version="1.0" encoding="UTF-8"?><svg id="Layer_1" xmlns="http://www.w3.org/2000/svg" viewBox="0 0 289 152"><defs><style>.cls-1{fill:#5a5aa0;}</style></defs><path class="cls-1" d="M196.18,96.29c-.18-.32-.44-.33-.67-.28-.47.12-.97-.02-1.44.17-.15.06-.31,0-.47-.04-.49-.12-.98-.19-1.47,0-.25.1-.5.1-.76.02-.35-.1-.7-.16-1.04.07-.09.06-.27.11-.34.06-.9-.54-1.82-.03-2.72-.04-.81,0-1.65.05-2.47.19-.52.09-1.11-.1-1.68-.12-.85-.02-1.67.23-2.52.23-.46,0-.91.11-1.35-.09-.08-.04-.2-.03-.29,0-.82.3-1.67.14-2.51.18-1.11.05-2.23-.03-3.33.19-.16.03-.35-.04-.53-.07-.18-.03-.37-.13-.52-.09-1.07.29-2.18.02-3.23.25-.91.21-1.83-.15-2.68.06-.81.2-1.6.09-2.39.1-1.27.02-2.53.31-3.8.24-1.72-.1-3.42.36-5.13.19-.41-.04-.8-.03-1.21.06-.85.19-1.73.05-2.6.17-1.34.19-2.72.11-4.08.18-1.7.09-3.42.02-5.12.17-1.01.09-2.02.17-3.01.03-.63-.09-1.17-.02-1.78.16-.47.14-1.06.08-1.59.05-.64-.03-1.26-.04-1.9.09-.41.08-.86.05-1.28-.02-.52-.08-1.05.07-1.54,0-1.02-.14-2.01.19-3.03.01-.47-.08-1,.06-1.51.08-1.13.04-2.26,0-3.38.02-.75.01-1.51-.03-2.26,0-.89.04-1.78.13-2.66-.04-.52-.1-1.01.14-1.54.11-.64-.03-1.24-.33-1.91-.22-1.06.16-2.14.12-3.22.1-.36,0-.65-.21-1.03-.21-.62,0-1.22.06-1.82.17-.31.05-.49-.2-.78-.22-1.1-.08-2.19.07-3.28.02-.52-.02-1.03.02-1.55-.16-.42-.14-.92-.11-1.34-.1-.71.01-1.41-.18-2.13-.07-.59.09-1.21-.05-1.82-.12-.41-.05-.85.08-1.24-.23-.1-.08-.35-.05-.41.14-.05.14.1.25.23.31.65.29,1.16.75,1.68,1.21.72.64,1.15,1.51,1.77,2.23.32.37.58.8.48,1.35-.01.07,0,.2.04.22.6.27.35.76.33,1.2,0,.1-.07.25-.03.29.65.59.18,1.42.47,2.09.14.31-.03.63-.06.94-.1,1.04-.35,1.99-.78,2.97-.3.68-.4,1.49-.97,2.03-.83.79-1.45,1.82-2.54,2.34-.33.16-.69.2-1.03.28-1.06.23-2.08.57-3.2.61-.68.03-1.41.03-2.06-.02-.83-.07-1.75-.11-2.51-.58-.31-.19-.55.17-.79,0-.79-.54-1.89-.39-2.57-1.19-.06-.07-.18-.09-.27-.12-.86-.23-1.61-.69-2.32-1.23-.26-.19-.57-.19-.87-.14-.75.12-1.51-.04-2.15-.26-.49-.17-1.21-.09-1.55-.74-.09-.17-.4-.26-.62-.33-.25-.08-.35-.22-.39-.47-.02-.17,0-.39-.17-.5-1.04-.67-.45-1.73-.6-2.61-.05-.31.42-.48.56-.81.36-.87.85-1.66,1.63-2.25.33-.25.41-.59.46-1.03.06-.49.33-1.02.6-1.43.3-.44.45-.96.81-1.37.86-.96,1.82-1.79,2.96-2.39.61-.32,1.24-.63,1.87-.87.52-.2,1.13-.26,1.7-.42.15-.04.35-.04.35-.25,0-.22-.2-.28-.39-.3-.63-.08-1.26-.18-1.89-.23-1.16-.09-2.25-.54-3.38-.72-.85-.13-1.67-.3-2.49-.52-1.69-.45-3.36-.95-4.88-1.85-.42-.25-.85-.41-1.36-.32-1.04.18-2.06-.18-3.09-.2-1.44-.02-2.8-.36-4.12-.93-.15-.06-.3-.15-.45-.14-.75.02-1.27-.52-1.92-.76-1.13-.42-2.14-1.11-3.17-1.72-.61-.36-1.14-.83-1.66-1.32-.33-.31-.71-.55-1.04-.88-.6-.6-1.26-1.15-1.73-1.85-.57-.84-1.29-1.59-1.64-2.58-.11-.29-.31-.55-.47-.83-.04-.07-.14-.13-.14-.19.03-1.23-.77-2.27-.82-3.49-.04-1.22-.3-2.48-.03-3.66.18-.81,0-1.68.45-2.44.15-.25.2-.55.15-.87-.05-.36.08-.7.25-1.03.31-.61.32-1.21-.17-1.75-.16-.18-.29-.38-.09-.58.32-.32.41-.77.47-1.14.1-.58.44-.79.89-.9.45-.11.69-.41.96-.74.71-.85,1.1-1.95,1.97-2.67.64-.54,1.31-.99,2.23-1.06.64-.05,1.2-.56,1.78-.9.78-.46,1.57-.99,2.43-1.23,1.92-.52,3.76-1.26,5.67-1.78.91-.25,1.83-.47,2.76-.67,1.03-.23,2.06-.47,3.1-.63.97-.15,1.97-.2,2.96-.26,1.57-.1,3.18.17,4.73-.37.46-.16.99-.03,1.49-.11.75-.12,1.49-.28,2.22-.43.7-.15,1.39-.22,2.1-.21.75.01,1.43-.34,2.16-.44,1.1-.16,2.21-.26,3.31-.43,1.48-.23,2.99-.26,4.47-.48,1.84-.28,3.7-.32,5.53-.61,1.12-.18,2.26-.35,3.37-.37,1.12-.02,2.2-.24,3.31-.29,1.54-.06,3.07-.34,4.6-.45.83-.06,1.64-.26,2.48-.2.47.03.94.02,1.42-.09,1.13-.26,2.3-.25,3.44-.26,1.19,0,2.33-.35,3.51-.34.89,0,1.79-.07,2.68-.12.5-.03,1-.02,1.49-.09.81-.12,1.62-.05,2.43-.03.7.02,1.39-.27,2.12-.25.92.02,1.83-.06,2.75,0,.4.02.78-.08,1.16-.11,1.46-.11,2.91-.17,4.37-.24,1.5-.07,3.02-.2,4.5-.17,1.92.04,3.84-.32,5.76-.06.6.08,1.26-.01,1.85-.16.69-.18,1.31.15,1.98.1,1.61-.12,3.22-.24,4.83-.21.99.02,1.97-.15,2.94-.07,1.89.16,3.78,0,5.68.12,1.06.07,2.18.14,3.26-.03.98-.16,1.94.09,2.91.04,1.76-.1,3.52.15,5.28.21,1.92.07,3.84.06,5.76.27.91.1,1.9,0,2.83.1.9.1,1.81.1,2.7.17.99.07,1.97.29,2.97.24,1.25-.06,2.48-.35,3.76-.11,1.3.24,2.61.38,3.91.65,1.81.37,3.58.89,5.33,1.48,1.36.46,2.75.95,4.02,1.61.89.47,1.9.64,2.71,1.22.81.58,1.83.8,2.58,1.39,1.09.86,2.32,1.43,3.49,2.12.2.12.38.19.41.46.01.12.1.2.25.21.54.04.92.39,1.26.75.29.3.68.52,1,.71.65.39.94,1.15,1.71,1.41.65.22,1.09.82,1.6,1.28.95.86,1.92,1.7,2.88,2.55.29.26.56.57.78.86.8,1.03,1.75,1.93,2.49,3.02.34.51.5,1.15,1.03,1.53.18.13.13.37.17.56.16.79.7,1.38,1.06,2.06.22.4.3.86.48,1.25.55,1.19.24,2.53.75,3.71-.31.68-.27,1.44-.23,2.13.05.8-.29,1.48-.41,2.21-.15.96-.7,1.85-1.11,2.76-.37.81-1.1,1.4-1.4,2.25-.02.05-.05.11-.09.15-1.51,1.3-2.66,3.02-4.43,3.99-.76.41-1.47.91-2.21,1.35-1.11.66-2.34,1-3.51,1.45-.68.26-1.4.69-2.22.53-.09-.02-.22,0-.28.07-.6.58-1.45.25-2.12.61-.25.13-.56-.11-.88-.06-1.8.31-3.59-.03-5.39-.14-.76-.05-1.51-.3-2.2-.67-.09-.05-.21-.13-.27-.1-.71.31-1.44,0-2.18.13-.66.12-1.4.26-2.1.05-.4-.12-.82-.06-1.19,0-1.66.27-3.32.11-4.98.18-.04,0-.08,0-.12.01-.18.05-.48-.06-.48.21,0,.23.3.35.51.31.35-.08.71-.04,1.06-.09.86-.11,1.69.18,2.53.37.64.14,1.24.42,1.9.44.14,0,.34-.05.41.02.42.46,1.06.41,1.54.67.83.44,1.69.83,2.49,1.34.77.49,1.41,1.03,1.94,1.75.42.57.92,1.07,1.39,1.61.19.22.32.5.32.76,0,.83.31,1.6.41,2.4.01.11.01.25-.04.34-.27.53-.33,1.11-.36,1.68-.02.34-.11.62-.4.82-.08.05-.22.12-.22.19-.08,1.13-1.27,1.45-1.71,2.34-.15.31-.77.42-1.11.73-.79.75-1.9,1.01-2.73,1.71-.29.24-.68.1-1.05.24-1.73.64-3.47,1.29-5.29,1.59-.9.15-1.82.42-2.69.42-1.01,0-2.03.16-3.06.06-.74-.07-1.51-.08-2.25-.16-.57-.07-1.2-.14-1.75-.41-.09-.04-.18-.1-.27-.12-2.76-.54-4.82-2-5.9-4.64-.3-.72-.46-1.47-.34-2.34.11-.81.33-1.6.38-2.41.03-.45.45-.62.57-1.02.19-.6-.03-1.17.07-1.76.19-1.2.47-2.36,1.29-3.28.45-.51.87-1.08,1.5-1.42.2-.11.38-.2.61-.19.15.01.39,0,.45-.08.5-.74,1.39-.47,2.02-.83.6-.35,1.23-.52,1.91-.66.77-.17,1.54.02,2.34-.17ZM192.99,86.03c.83.21,1.68.09,2.53.14,1.24.08,2.49-.07,3.73-.02,1.08.04,2.16-.04,3.23.08.64.07,1.29-.07,1.87,0,1.08.15,2.16-.17,3.22.14.09.03.21,0,.29-.03.46-.19.93-.16,1.41-.14.92.04,1.86-.02,2.76-.13.84-.1,1.64-.42,2.5-.17.08.02.19-.01.29-.04,1.02-.29,2.04-.48,3.1-.2.15.04.31-.02.47-.01.86.05,1.74-.23,2.6.07.33.11.66.27,1.02.06.11-.06.23,0,.33.08.52.36,1.12.61,1.56,1.09.52.56-.17,1.31.34,1.87.08.08,0,.23-.09.32-.57.58-1.19,1.16-1.99,1.3-.97.18-1.97.53-2.98.11-.26-.11-.48.09-.65.23-.26.2.08.32.13.49.08.27.2.53.24.8.06.38.24.45.59.33.47-.17.94-.32,1.42-.45.7-.19,1.42-.36,2.13-.53.33-.08.48-.47.87-.48,1.18-.05,1.96-.98,3-1.37.51-.19.76-.93,1.46-.88.19-.62.92-.71,1.23-1.24.41-.7,1.06-1.21,1.52-1.9.45-.68.89-1.38,1.28-2.08.43-.77.61-1.69.79-2.57.16-.78.12-1.58.06-2.4-.05-.66-.25-1.26-.34-1.9-.14-.99-.63-1.85-1.22-2.64-.09-.11-.2-.22-.16-.37.07-.31-.12-.48-.31-.66-.39-.37-.72-.78-.92-1.29-.07-.18-.21-.35-.35-.48-.45-.4-.77-.89-1.08-1.4-.21-.34-.48-.64-.89-.79.26.3.34.65.48.99.24.56.11,1.14.25,1.69.13.47.44.86.46,1.38.01.28.13.63.32.81.83.74,1.21,1.73,1.68,2.69.17.34.03.7.18,1.04.45,1.02-.16,3.01-1.15,3.44-.51.22-1.03.51-1.57.63-1.52.32-2.93.97-4.34,1.56-1.13.47-2.44.26-3.45,1.06-.03.02-.08,0-.12,0-.85.16-1.72.09-2.55.38-.2.07-.44.11-.65.07-.94-.15-1.88-.05-2.8.04-2.02.19-4.04.15-6.05.34-.97.09-1.9-.06-2.85-.07-.74-.01-1.43.34-2.18.21-.25-.05-.49-.21-.75-.16-1.03.2-2.07.24-3.11.33-.83.07-1.67.06-2.5.19-1.41.23-2.85.32-4.28.47ZM153.07,52.19c.65.81,1.49,1.18,2.32,1.16.64-.02,1.32.06,1.99-.12.29-.08.79-.23,1.18.02.25.16.53.13.81.12.65-.03,1.3-.09,1.94-.04.8.07,1.61.12,2.41.1.27,0,.54-.2.82-.09,1.1.39,2.26.17,3.38.2.98.03,2,.03,2.98.07.75.03,1.55.05,2.3.22.57.13,1.05-.27,1.58-.11.71.2,1.42.3,2.17.33.36.01.71-.23,1.03-.07,1.06.54,2.26-.01,3.35.45.42.18.99,0,1.5,0,.79,0,1.55.19,2.33.22.67.02,1.39.27,2.09.43.48.11.95.36,1.5.27,1-.17,1.96-.58,3-.58.38,0,.79-.29,1.13-.21,1.11.25,2.23-.02,3.33.18.19.04.39.19.58.08.74-.41,1.47.04,2.17.1.64.05,1.28.16,1.93.09.74-.09,1.4.29,2.13.33.46.03.93.26,1.43.22.67-.06,1.34-.2,2-.17.76.04,1.51.23,2.26.35-.71-.42-1.43-.81-2.18-1.15-.97-.44-2.03-.63-2.98-1.19-.47-.27-1.09-.53-1.64-.6-1.75-.23-3.5-.62-5.27-.5-.72.05-1.38-.29-2.06-.21-1.35.17-2.67-.16-4.01-.11-1.02.04-2.05-.11-3.08-.14-1.18-.04-2.36,0-3.54,0-2.1.02-4.2-.04-6.3-.11-1.83-.06-3.67.03-5.5-.05-2.77-.12-5.54.13-8.32.12-1.46,0-2.94-.02-4.4.11-.65.06-1.25-.14-1.89-.07-.94.11-1.88.3-2.84.23-.52-.04-1.04.07-1.64.12ZM189.17,104.96c.17-.03.24-.02.28-.05.82-.58,1.67-1.08,2.7-1.2.18-.02.34-.11.47-.25.12-.13.3-.21.43-.14.7.36,1.28-.13,1.86-.31,1.43-.45,2.89-.62,4.37-.78.78-.08,1.59.09,2.34-.25.12-.05.23-.05.35,0,.63.31,1.32.25,1.99.31.35.03.69.07.93.33.37.38.68.84,1.22,1.03.19.07.19.29.2.47.02.45.2.94-.23,1.31.35.7-.15,1.17-.48,1.66-.24.34-.32.53.27.62-1.02.01-1.55,1.01-2.5.98-.53.84-1.58.66-2.33,1.13-.76.47-1.8.43-2.64.98-.52.34-1.31.11-1.85.62-.12.12-.34.06-.52.08-.32.04-.68.02-.94.3.36-.02.72,0,1.07.03.94.09,1.9-.02,2.77-.25.98-.26,2.11.02,2.96-.73.03-.03.12-.02.17,0,.52.14.94-.1,1.34-.36.2-.13.42-.26.66-.26.94,0,1.67-.62,2.44-1,.56-.28,1.2-.56,1.75-.99.86-.68,1.27-1.54,1.63-2.49.09-.25,0-.53-.16-.73-.25-.32-.41-.69-.53-1.06-.07-.21-.18-.33-.36-.44-.61-.38-1.26-.69-1.85-1.13-.55-.41-1.35-.4-1.84-.75-.97-.7-2.09-.53-3.11-.84-.88-.27-1.87-.21-2.8-.33-.51-.07-1.01-.09-1.53-.05-.42.03-.82.12-1.22.21-.79.2-1.6,0-2.41.14-.47.08-.81.42-1.28.41-.6-.02-1.09.32-1.46.71-.86.89-1.5,1.95-2.14,3.12ZM59.75,81.2c-.71-.23-1.15-.75-1.55-1.32-.27-.39-.42-.69-.01-1.07.16-.15.17-.38.09-.62-.08-.26-.08-.53.23-.67.34-.15.57-.43.86-.64.25-.18.42-.5.79-.49.76.02,1.41-.39,2.07-.66.39-.16.86-.06,1.14-.35.26-.26.54-.29.85-.33.63-.08,1.32.08,1.85-.56-.86.05-1.67.05-2.48.15-.81.1-1.55.09-2.18-.53-.47-.47-.81-1.01-1.18-1.55-.26-.37-.19-.6-.02-.9.08-.13.28-.2.27-.38-.04-.61.43-.93.77-1.37-.41-.25-.79-.41-1.18.02-.17.2-.38.17-.61.13-.17-.03-.36-.07-.53-.04-1.13.17-2.24.43-3.39.25-.4-.06-.63.09-.63.5,0,.44-.15.86-.21,1.29-.1.76-.42,1.51-.28,2.3.22,1.21-.04,2.42.28,3.65.33,1.27.83,2.43,1.43,3.56.23.44.5.71.94.18.09-.11.29-.18.44-.16.77.07,1.46-.31,2.22-.41ZM74.88,92.27c1.23.27,2.38.64,3.58.8,1.4.19,1.4.23,1.46-1.22.02-.4.72-1.55.99-1.62.91-.25,1.82-.5,2.73-.75.14-.04.3-.1.23-.28-.06-.17-.22-.13-.36-.09-.79.18-1.58.11-2.38.09-1.04-.02-2.09-.05-3.12.09-.72.09-1.43,0-2.15.01-.68.02-1.36-.04-2.02-.18-.35-.07-.55.29-.91.17-.9-.3-1.85-.21-2.77-.29-.6-.05-1.17-.28-1.8-.24-.33.02-.87-.19-.82-.81.01-.15-.03-.39-.21-.47-.32-.14-.64-.25-.54-.72.07-.34.16-.7.47-.87.42-.23.36-.65.3-.93-.04-.18-.55-.21-.82-.13-1.32.42-2.7.47-4.05.59-.71.07-1.31.6-2.06.37-.11-.03-.32.02-.43.21,1.36.84,2.65,1.8,4.08,2.48,1.24.59,2.47,1.28,3.84,1.58,1.06.23,2.02.98,3.2.61.07-.02.19.07.26.13.62.53,1.38.66,2.15.79.73.13,1.45.25,2.2.3-.35.12-.7.24-1.05.35ZM79.04,68.39c.49.17.93.31,1.34.07.32-.19.6-.2.96-.15.59.1,1.3-.02,1.76-.21.79-.33,1.58-.16,2.35-.3.75-.14,1.51-.27,2.27-.39.51-.08,1.06-.24,1.57-.08.33.1.57.1.83-.09.5-.37,1.04-.35,1.6-.17.19.06.39.14.58.06.7-.31,1.41-.47,2.21-.44.5.01,1.04,0,1.56-.13.9-.23,1.83-.33,2.76-.39.75-.05,1.53.11,2.25-.21.38-.17.76-.18,1.16-.2,1.01-.06,2.02.02,3.03-.15.5-.09,1.01-.32,1.52-.19.45.11.82,0,1.21-.16.16-.07.32-.15.5-.19.94-.22,1.94.33,2.84-.26.07-.04.19,0,.29.01,1.1.06,2.2.04,3.3-.15.54-.09,1.03-.42,1.56-.4.89.04,1.76.05,2.65-.05.41-.05.88-.21,1.24-.07.66.26,1.1-.15,1.62-.35.11-.04.25-.1.18-.25-.07-.16-.21-.1-.3-.02-.33.29-.67.25-1.05.1-.22-.08-.52-.12-.75.04-.15.1-.27.25-.47.21-.68-.16-1.37-.09-2.06-.08-1.04.02-2.08.3-3.12-.01-.37-.11-.66.22-1.01.3-.91.19-1.82.01-2.73.13-1.15.15-2.3.27-3.47.25-1.17-.03-2.36.17-3.53.32-.81.11-1.57-.21-2.42-.05-.93.17-1.94.61-2.93.14-.04-.02-.11,0-.17.02-.74.18-1.47.31-2.26.24-.48-.04-1.05-.17-1.5.23-.09.08-.22.08-.34.03-.34-.14-.66-.03-.99.03-.8.13-1.6.21-2.39.39-1.02.23-2.11.06-3.19.23-1.42.22-2.7.74-4.01,1.21-.31.11-.56.24-.88.17-.22-.05-.44.02-.64.12-.89.44-1.92.4-2.92.85ZM203.39,79.83c1.23-.08,2.38-.1,3.51-.26.56-.08,1.11-.22,1.68-.19,1.5.08,3.01.25,4.48-.25.07-.02.17-.03.23,0,.42.24.82-.06,1.22-.07.64-.02.5-.6.61-.99.03-.11.13-.2.19-.3.41-.67.67-1.36.27-2.15-.14-.28-.36-.51-.43-.84-.22-.97-.54-1.14-1.5-.87-.62.18-1.29.2-1.9.22-.71.03-1.41.1-2.11.2-.45.07-.26.33-.16.43.31.3.37.66.45,1.05.11.48-.04.9-.11,1.35-.08.53-.34.82-.9.81-.05,0-.11.06-.14.1-.22.4-.63.44-1,.58-.83.31-1.71.41-2.58.54-.43.06-.81.38-1.3.24-.12-.03-.36,0-.54.38ZM118.74,94.51c-.12-.03-.23-.07-.35-.08-.24,0-.55-.03-.59.27-.04.34.25.31.5.31.72-.02,1.42-.16,2.16-.12.82.05,1.65-.11,2.48-.13.92-.02,1.84.07,2.76.03,1.18-.05,2.35-.18,3.53-.15,1.51.05,3.02-.06,4.53-.11.67-.02,1.36-.35,2.03-.02.26.12.49.13.74.06,1.07-.32,2.16-.2,3.25-.17.43,0,.88.05,1.28-.21.16-.1.34-.1.5.03.12.1.26.16.38.06.34-.28.7-.18,1.08-.14.27.03.56-.02.83-.05.11-.01.25-.08.22-.23-.02-.08-.12-.15-.2-.2-.18-.12-.34-.01-.51.03-1.05.27-2.13-.12-3.19.08-.02,0-.04-.01-.05-.02-.49-.36-1.06-.19-1.55-.1-1.34.26-2.7.04-4.04.27-.39.07-.83-.09-1.25.12-.16.08-.41.07-.57-.09-.19-.19-.38-.14-.61-.07-.81.26-1.66.1-2.48.13-.57.02-1.17-.07-1.76,0-.82.1-1.63.32-2.48.16-1.37-.26-2.7.43-4.08.19-.07-.01-.15.05-.23.05-.78.06-1.57-.03-2.34.08ZM216.66,91c-.57-.22-.98-.29-1.4-.29-.85-.02-1.71.43-2.54-.12-.06-.04-.21,0-.28.05-.25.2-.54.15-.81.1-.75-.13-1.5.1-2.25-.04-1.01-.19-1.96.31-3,.21-1.5-.16-3,.22-4.5.39-.38.04-.69-.24-1.05-.13-.72.24-1.44.46-2.21.26-.16-.04-.33.09-.34.26,0,.17.17.16.31.21.35.13.58-.25.91-.19.77.15,1.52-.2,2.28-.03.7.15,1.38-.12,2.06-.05.58.06,1.14.11,1.71-.06.26-.08.57-.1.82-.02.49.17,1.01.17,1.48.1.54-.09,1.1.27,1.64-.14.15-.12.6-.19.9.05.12.1.28.04.4-.02.32-.16.63-.14.98-.05.34.09.73.1,1.06-.03.48-.19.96-.18,1.46-.16.73.02,1.48.03,2.35-.28ZM90.91,111.56c1.31.31,2.43-.13,3.54-.6.21-.09.43-.25.56-.43.58-.85.91-1.81,1.06-2.82.06-.38-.2-.77-.02-1.17.06-.13.1-.29-.07-.36-.17-.07-.24.09-.31.21-.14.26-.23.57-.43.77-.87.9-1.74,1.81-2.68,2.64-.3.26-.46.65-.81.83-.4.2-.62.53-.84.93ZM86.77,57.81c.51.07.78.38,1.23.31,1.18-.2,2.35-.54,3.57-.45.07,0,.15-.08.23-.07.53.06.92-.48,1.48-.33.71.2,1.41,0,2.06-.17.99-.26,1.97-.53,3-.5.24,0,.46-.02.7-.08.48-.13.99-.28,1.45-.31,1.24-.09,2.47-.15,3.66-.56.11-.04.24-.05.35-.03.58.11,1.14.1,1.7-.11.46-.17.94-.16,1.42-.13.17.01.32-.07.34-.26.01-.13-.13-.19-.21-.15-.5.23-1.04-.06-1.57.18-.97.43-2.08.39-3.09.43-1.45.05-2.87.28-4.28.46-1.38.18-2.77.28-4.15.46-1.04.14-2.07.29-3.12.38-.8.06-1.65.19-2.45.4-.72.19-1.51.04-2.32.53ZM101.93,84.81c.35.32.36.32.65.26.2-.05.39-.08.59-.06,1.28.11,2.53-.08,3.79-.3,1.07-.18,2.01-.85,3.15-.74.25.02.47-.16.61-.52-1.07.14-2.03.5-3.05.48-.99-.02-1.91.37-2.9.48-.92.1-1.88.3-2.84.4ZM77.55,58.83c0-.05,0-.11,0-.16-.73.03-1.47,0-2.19.1-1.08.16-2.13.46-3.2.65-1.08.19-2.13.53-3.17.88-.15.05-.32.14-.46.11-.52-.1-.83.26-1.21.5,3.36-.95,6.81-1.46,10.23-2.09ZM220.96,77.07c.12.3-.34.7.1,1,.13.09,1.24-.38,1.21-.49-.13-.49-.56-.64-.95-.83-.24-.12-.3.1-.36.32Z"/></svg>