<svg width="130" height="109" viewBox="0 0 130 109" fill="none" xmlns="http://www.w3.org/2000/svg">
<path d="M65.2473 6.0528C66.4259 14.5774 66.9902 23.1717 68.9978 31.6018C71.4549 41.9269 77.8073 48.0245 88.095 50.4317C94.6422 51.9635 101.284 52.7941 107.966 53.4158C109.864 53.5898 111.752 53.8087 113.65 54.0076V54.5C109.634 55.5494 105.469 55.4649 101.394 56.0517C96.2403 56.7928 91.0965 57.504 86.0575 58.8817C76.399 61.5226 71.1552 68.1474 68.9329 77.4529C67.3148 84.2318 66.4658 91.14 65.8466 98.0781C65.7017 99.7094 65.452 101.326 65.2523 102.952H64.7529C63.824 95.4024 63.3196 87.7978 61.6965 80.3375C58.5503 65.8695 53.3265 60.5926 38.644 57.6184C32.0868 56.2905 25.4348 55.5445 18.7527 55.072C17.9437 55.0173 17.1546 54.6989 16.3506 54.505C16.3506 54.3409 16.3506 54.1767 16.3506 54.0126C26.3037 52.9383 36.3417 52.426 45.9303 49.1435C52.8371 46.7811 57.5015 42.2452 59.8138 35.3768C62.0012 28.8714 62.98 22.1372 63.6592 15.3434C63.9688 12.2448 64.3833 9.15131 64.7529 6.05777C64.9177 6.05777 65.0875 6.05777 65.2523 6.05777L65.2473 6.0528Z" fill="#5A5AA0"/>
</svg>
